<svg width="20" height="19" viewBox="0 0 20 19" fill="none" xmlns="http://www.w3.org/2000/svg">
<path d="M17.1928 1.25244H14.8462V0.919108C14.8462 0.550918 14.5477 0.252441 14.1795 0.252441C13.8113 0.252441 13.5128 0.550918 13.5128 0.919108V1.25244H6.48618V0.919108C6.48618 0.550918 6.1877 0.252441 5.81951 0.252441C5.45132 0.252441 5.15284 0.550918 5.15284 0.919108V1.25244H2.80618C1.25762 1.25611 0.00317699 2.51055 -0.000487983 4.05911L-0.000488281 15.7524C0.00317699 17.301 1.25762 18.5554 2.80618 18.5591H17.1928C18.7414 18.5554 19.9958 17.301 19.9995 15.7524L19.9995 4.05911C19.9958 2.51055 18.7414 1.25611 17.1928 1.25244ZM2.80618 2.58577H5.15284V2.91911C5.15284 3.2873 5.45132 3.58577 5.81951 3.58577C6.1877 3.58577 6.48618 3.2873 6.48618 2.91911V2.58577H13.5128V2.91911C13.5128 3.2873 13.8113 3.58577 14.1795 3.58577C14.5477 3.58577 14.8462 3.2873 14.8462 2.91911V2.58577H17.1928C18.0065 2.58577 18.6662 3.24541 18.6662 4.05911V5.63911H1.33284V4.05911C1.33284 3.24541 1.99248 2.58577 2.80618 2.58577ZM17.1928 17.2524H2.80618C2.41052 17.2524 2.0317 17.0935 1.75466 16.8114C1.47775 16.5294 1.32569 16.1478 1.33284 15.7524V6.97244H18.6662V15.7524C18.6733 16.1478 18.5213 16.5294 18.2442 16.8115C17.9671 17.0936 17.5883 17.2525 17.1928 17.2524Z" fill="#1F2846"/>
</svg>
