<svg width="18" height="20" viewBox="0 0 18 20" fill="none" xmlns="http://www.w3.org/2000/svg">
<path d="M9.00009 0C6.84507 0 5.09229 1.75327 5.09229 3.90829V5.93307C5.09229 8.08825 6.84507 9.84152 9.00009 9.84152C11.1553 9.84152 12.9079 8.08825 12.9079 5.93307V3.90829C12.9079 1.75327 11.1553 0 9.00009 0Z" fill="white"/>
<path d="M17.6182 14.9343C16.3668 12.8018 14.3667 11.2209 11.9862 10.4826C11.931 10.4655 11.8713 10.4801 11.8302 10.5207C10.7229 11.6125 9.34688 12.4644 9.00288 12.6701C8.63569 12.4354 7.08898 11.4273 6.16947 10.5207C6.12851 10.4801 6.06835 10.4655 6.01347 10.4826C3.63269 11.221 1.6327 12.802 0.381831 14.9344C0.353192 14.9832 0.353192 15.0439 0.381831 15.0927C2.15814 18.1195 5.46035 19.9998 8.99984 19.9998C12.5395 19.9998 15.8419 18.1195 17.6182 15.0927C17.647 15.0437 17.647 14.9831 17.6182 14.9343ZM14.3148 16.1C14.3148 16.1863 14.2328 16.2522 14.1467 16.2522H13.0883C13.002 16.2522 12.908 16.3263 12.908 16.4127V17.5072C12.908 17.5933 12.8619 17.6591 12.7757 17.6591H11.8251C11.7389 17.6591 11.6576 17.5933 11.6576 17.5072V16.4127C11.6573 16.3264 11.5984 16.2522 11.5121 16.2522H10.4082C10.3219 16.2522 10.2506 16.1861 10.2506 16.1V15.1576C10.2506 15.0714 10.3219 15.0018 10.4082 15.0018H11.5121C11.5984 15.0018 11.6573 14.9314 11.6573 14.845V13.7492C11.6573 13.6629 11.7385 13.5949 11.8248 13.5949H12.7651C12.8512 13.5949 12.9078 13.6629 12.9078 13.7492V14.8482C12.9078 14.9346 12.9913 15.0016 13.0777 15.0016H14.1467C14.2328 15.0016 14.3148 15.0746 14.3148 15.1608L14.3148 16.1Z" fill="white"/>
</svg>
