<svg width="21" height="21" viewBox="0 0 21 21" fill="none" xmlns="http://www.w3.org/2000/svg">
<path d="M16.1009 3.0144C14.4737 1.38736 12.3103 0.491211 10.0092 0.491211C7.70798 0.491211 5.54459 1.38736 3.91739 3.0144C2.29019 4.6416 1.39404 6.80515 1.39404 9.10632C1.39404 11.4073 2.29019 13.5709 3.91739 15.1979L8.64853 19.9292C9.01093 20.2916 9.49417 20.4912 10.0092 20.4912C10.5241 20.4912 11.0074 20.2916 11.3696 19.9292L16.1009 15.1979C17.728 13.5709 18.6241 11.4073 18.6241 9.10632C18.6241 6.80515 17.7281 4.6416 16.1009 3.0144ZM15.2724 14.3694L10.5409 19.1007C10.3999 19.2417 10.211 19.3193 10.0092 19.3193C9.80713 19.3193 9.61823 19.2417 9.47723 19.1005L4.74594 14.3694C1.84387 11.4673 1.84387 6.74518 4.74594 3.84311C6.15189 2.43732 8.02094 1.66309 10.0092 1.66309C11.9972 1.66309 13.8664 2.43732 15.2724 3.84311C18.1743 6.74533 18.1743 11.4673 15.2724 14.3694Z" fill="#1F2846"/>
<path d="M12.9626 7.5421H11.6064V6.18596C11.6064 5.84753 11.332 5.57324 10.9937 5.57324H9.02469C8.68642 5.57324 8.41197 5.84753 8.41197 6.18596V7.5421H7.05583C6.71756 7.5421 6.44312 7.81639 6.44312 8.15482V10.1237C6.44312 10.4621 6.71756 10.7364 7.05583 10.7364H8.41197V12.0925C8.41197 12.431 8.68642 12.7053 9.02469 12.7053H10.9937C11.332 12.7053 11.6064 12.431 11.6064 12.0925V10.7364H12.9626C13.301 10.7364 13.5753 10.4621 13.5753 10.1237V8.15482C13.5753 7.81639 13.301 7.5421 12.9626 7.5421ZM12.3498 9.51096H10.9937C10.6553 9.51096 10.381 9.7854 10.381 10.1237V11.4798H9.63742V10.1237C9.63742 9.7854 9.36313 9.51096 9.02469 9.51096H7.66856V8.76755H9.02486C9.36313 8.76755 9.63742 8.49326 9.63742 8.15482V6.79869H10.381V8.15482C10.381 8.49326 10.6553 8.76755 10.9937 8.76755H12.3498V9.51096Z" fill="#1F2846"/>
</svg>
