<svg width="20" height="21" viewBox="0 0 20 21" fill="none" xmlns="http://www.w3.org/2000/svg">
<path d="M16.8768 20.4053H3.11061C1.44542 20.398 0.0983388 19.048 0.0947266 17.3828V7.16705C0.101458 6.06406 0.708502 5.05232 1.67856 4.52733L8.54844 0.77232C9.44746 0.282924 10.5333 0.282925 11.4323 0.772321L18.322 4.50753C19.2921 5.03252 19.8991 6.04426 19.9059 7.14726V17.3828C19.9022 19.0531 18.5471 20.4053 16.8768 20.4053ZM9.99369 1.72262C9.71031 1.7222 9.43131 1.79252 9.18198 1.9272L2.2923 5.66901C1.74798 5.97046 1.41145 6.54484 1.41459 7.16705V17.3828C1.41459 18.3231 2.17688 19.0854 3.11721 19.0854H16.8768C17.8145 19.0818 18.5728 18.3205 18.5728 17.3828V7.16705C18.5733 6.54203 18.2313 5.96698 17.6819 5.66901L10.8054 1.9338C10.5567 1.79682 10.2776 1.72423 9.99369 1.72262Z" fill="#1F2846"/>
<path d="M9.99363 17.508C8.09829 17.508 6.46921 16.166 6.10648 14.3065C6.07768 14.1152 6.13429 13.9209 6.26135 13.7749C6.3884 13.629 6.57309 13.5462 6.76656 13.5484C7.09137 13.5437 7.37131 13.776 7.4265 14.0962C7.68267 15.3189 8.76087 16.1946 10.0101 16.1946C11.2594 16.1946 12.3376 15.3189 12.5938 14.0962C12.6489 13.776 12.9289 13.5437 13.2537 13.5484C13.4473 13.5462 13.6321 13.6292 13.7592 13.7753C13.8862 13.9214 13.9427 14.1159 13.9136 14.3073C13.5482 16.179 11.9006 17.5243 9.99363 17.508Z" fill="#1F2846"/>
</svg>
