<svg width="56" height="54" viewBox="0 0 56 54" fill="none" xmlns="http://www.w3.org/2000/svg">
<path d="M50.4945 20.4941C47.5203 16.7862 43.5797 13.5582 39.7689 10.437L39.7163 10.3938C36.1583 7.47614 32.4789 4.45879 29.6732 1.14024C29.1522 0.528343 28.7706 0.293134 27.972 0.0926794C27.8575 0.0638926 27.7396 0.042127 27.6199 0.0259783C27.5588 0.00947857 27.4949 0 27.4289 0H26.7636C26.1328 0 25.5395 0.308229 25.1772 0.824636L24.3424 2.01332C24.3399 2.01683 24.3375 2.01999 24.3354 2.0235L23.3401 3.49268H23.0154C22.7545 2.98821 22.2283 2.64206 21.6224 2.64206C20.757 2.64206 20.0532 3.34594 20.0532 4.21094C20.0532 5.0763 20.757 5.78018 21.6224 5.78018C22.2129 5.78018 22.7279 5.45158 22.9954 4.96853H23.7315C23.9766 4.96853 24.2051 4.84706 24.3424 4.64415L25.5535 2.85621L26.3778 1.68227V9.40977H16.524C16.2593 8.91548 15.7386 8.57846 15.1401 8.57846C14.2747 8.57846 13.5709 9.28233 13.5709 10.1473C13.5709 11.0127 14.2747 11.7166 15.1401 11.7166C15.7386 11.7166 16.2593 11.3796 16.524 10.8853H26.3778V13.7811H16.2231C15.7362 13.7811 15.2914 14.1017 15.0902 14.5984L13.653 18.1462H7.96727C7.70257 17.6523 7.1816 17.3153 6.58305 17.3153C5.71804 17.3153 5.01417 18.0191 5.01417 18.8841C5.01417 19.7491 5.71804 20.453 6.58305 20.453C7.1816 20.453 7.70257 20.116 7.96727 19.6221H13.8457C14.333 19.6221 14.7774 19.3012 14.9786 18.8044L16.4158 15.2566H26.3778V17.8829H20.8325C20.3867 17.8829 19.9826 18.1339 19.7519 18.5538L18.5008 20.8314C18.4801 20.8307 18.4597 20.8283 18.4386 20.8283C17.5736 20.8283 16.8698 21.5322 16.8698 22.3975C16.8698 23.2625 17.5736 23.9664 18.4386 23.9664C19.304 23.9664 20.0075 23.2625 20.0075 22.3975C20.0075 22.097 19.9212 21.8169 19.7744 21.5782L20.9936 19.3588H26.3778V27.3039H17.8274L15.9633 24.6334C15.7116 24.2732 15.3079 24.058 14.8831 24.058H2.97452V24.1044C2.71789 23.5862 2.18499 23.2285 1.56888 23.2285C0.703872 23.2285 0 23.9323 0 24.7974C0 25.6627 0.703872 26.3666 1.56888 26.3666C2.18499 26.3666 2.71789 26.0089 2.97452 25.4907V25.5339H14.7922L16.6563 28.2044C16.9077 28.5646 17.3114 28.7798 17.7365 28.7798H26.3778V31.8571H3.86621C3.60151 31.3632 3.08089 31.0262 2.48233 31.0262C1.61697 31.0262 0.913103 31.7301 0.913103 32.5951C0.913103 33.4604 1.61697 34.1639 2.48233 34.1639C3.08089 34.1639 3.60151 33.8269 3.86621 33.333H26.3778V35.8417H15.508C15.0084 35.8417 14.5651 36.1485 14.3509 36.6428L12.808 40.2067H7.75207C7.48772 39.7128 6.96675 39.3754 6.3682 39.3754C5.50319 39.3754 4.79932 40.0793 4.79932 40.9446C4.79932 41.8096 5.50319 42.5135 6.3682 42.5135C6.96675 42.5135 7.48772 42.1765 7.75207 41.6822H12.967C13.4666 41.6822 13.91 41.3754 14.1238 40.8811L15.667 37.3171H26.3778V41.3691C26.3754 41.3887 26.3726 41.4084 26.3701 41.428H19.1881C18.7276 41.428 18.2943 41.6531 18.0293 42.0301L16.3081 44.4815C16.241 44.4728 16.1729 44.4664 16.1034 44.4664C15.2384 44.4664 14.5345 45.1703 14.5345 46.0357C14.5345 46.9007 15.2384 47.6046 16.1034 47.6046C16.9688 47.6046 17.6726 46.9007 17.6726 46.0357C17.6726 45.7857 17.6122 45.5502 17.508 45.3402L19.219 42.9035H26.3469C26.4224 43.7008 26.6394 44.4893 26.9925 45.2342C27.7993 46.9372 29.4742 49.9963 32.0295 52.4074C28.791 52.2298 25.4738 52.2322 22.157 52.4141C23.1885 51.4181 24.9567 49.5624 25.5553 48.0262C26.3582 47.9581 26.9911 47.284 26.9911 46.464C26.9911 45.5986 26.2872 44.8947 25.4222 44.8947C24.5569 44.8947 23.8534 45.5986 23.8534 46.464C23.8534 46.8357 23.984 47.1773 24.2009 47.4466C23.7519 48.7209 21.7245 50.8547 20.4506 51.9868C20.1069 52.2796 19.9896 52.7033 20.1448 53.0958C20.3445 53.6013 20.955 53.912 21.7252 53.912C21.7821 53.912 21.8397 53.9103 21.8983 53.9068C25.4033 53.7014 28.9118 53.7 32.3258 53.9025C33.1778 53.9531 33.8669 53.6343 34.0814 53.0909C34.238 52.6932 34.1155 52.2642 33.7616 51.9714C31.287 49.9215 29.5777 47.0871 28.6418 45.2447C31.3039 47.5277 35.0788 49.865 39.3747 49.865C41.7008 49.865 43.8935 49.4669 45.8924 48.682C47.8517 47.9124 49.5789 46.7901 51.0249 45.3469C52.4713 43.9034 53.5957 42.1797 54.3673 40.2239C55.1541 38.2288 55.5532 36.0404 55.5539 33.7184C55.5539 29.0638 53.899 24.738 50.4945 20.4941ZM28.5481 2.09476C31.439 5.51442 35.1711 8.57495 38.7807 11.5347L38.8334 11.5783C44.6237 16.3214 50.5654 21.1895 52.9687 27.6093H47.5565L46.0655 24.6475C45.7713 24.0658 44.8115 24.0658 44.5174 24.6475L41.9301 30.5403C41.8953 30.62 41.7805 30.6161 41.7514 30.534L40.8744 28.0843C40.5802 27.5023 39.6204 27.5023 39.3263 28.0843L38.37 29.9842L35.6833 24.6475C35.3891 24.065 34.4293 24.065 34.1352 24.6475L32.6955 27.214C32.6639 27.2706 32.6042 27.3053 32.5396 27.3053H27.8537V1.58959C28.1658 1.68508 28.2841 1.78478 28.5481 2.09476ZM39.3747 48.3892C34.9854 48.3892 31.1154 45.5993 28.6418 43.2588C28.1408 42.7849 27.8537 42.1133 27.8537 41.4161V28.7798L33.0276 28.7727C33.1199 28.7727 33.2006 28.7173 33.2435 28.6355C33.7107 27.7417 34.8927 25.7101 34.8927 25.7101L37.4056 30.9184C37.6998 31.5008 38.8695 31.5921 39.1637 31.0093L40.0291 29.2783C40.0614 29.2137 40.1555 29.2186 40.1807 29.2863L41.0643 31.644C41.2114 31.9347 41.5105 32.1187 41.8384 32.1187C42.166 32.1187 42.4654 31.9347 42.6125 31.644L45.3367 25.6473L46.7466 28.5049C46.8937 28.7959 47.3255 28.9391 47.653 28.9391C49.6284 28.9391 51.4746 28.93 53.4051 28.9269C53.839 30.4336 54.0784 32.0249 54.0784 33.7184C54.076 42.3562 48.0297 48.3892 39.3747 48.3892Z" fill="#2FC3A1"/>
</svg>
