<svg width="23" height="22" viewBox="0 0 23 22" fill="none" xmlns="http://www.w3.org/2000/svg">
<path d="M0 1.5C0 0.671573 0.671573 0 1.5 0C2.32843 0 3 0.671573 3 1.5C3 2.32843 2.32843 3 1.5 3C0.671573 3 0 2.32843 0 1.5Z" fill="#1F2846"/>
<path d="M20 1.5C20 0.671573 20.6716 0 21.5 0C22.3284 0 23 0.671573 23 1.5C23 2.32843 22.3284 3 21.5 3C20.6716 3 20 2.32843 20 1.5Z" fill="#1F2846"/>
<path d="M10 1.5C10 0.671573 10.6716 0 11.5 0C12.3284 0 13 0.671573 13 1.5C13 2.32843 12.3284 3 11.5 3C10.6716 3 10 2.32843 10 1.5Z" fill="#1F2846"/>
<path d="M0 20.5C0 19.6716 0.671573 19 1.5 19C2.32843 19 3 19.6716 3 20.5C3 21.3284 2.32843 22 1.5 22C0.671573 22 0 21.3284 0 20.5Z" fill="#1F2846"/>
<path d="M0 10.5C0 9.67157 0.671573 9 1.5 9C2.32843 9 3 9.67157 3 10.5C3 11.3284 2.32843 12 1.5 12C0.671573 12 0 11.3284 0 10.5Z" fill="#1F2846"/>
<path d="M20 20.5C20 19.6716 20.6716 19 21.5 19C22.3284 19 23 19.6716 23 20.5C23 21.3284 22.3284 22 21.5 22C20.6716 22 20 21.3284 20 20.5Z" fill="#1F2846"/>
<path d="M20 10.5C20 9.67157 20.6716 9 21.5 9C22.3284 9 23 9.67157 23 10.5C23 11.3284 22.3284 12 21.5 12C20.6716 12 20 11.3284 20 10.5Z" fill="#1F2846"/>
<path d="M10 20.5C10 19.6716 10.6716 19 11.5 19C12.3284 19 13 19.6716 13 20.5C13 21.3284 12.3284 22 11.5 22C10.6716 22 10 21.3284 10 20.5Z" fill="#1F2846"/>
<path d="M10 10.5C10 9.67157 10.6716 9 11.5 9C12.3284 9 13 9.67157 13 10.5C13 11.3284 12.3284 12 11.5 12C10.6716 12 10 11.3284 10 10.5Z" fill="#1F2846"/>
</svg>
