<svg width="19" height="23" viewBox="0 0 19 23" fill="none" xmlns="http://www.w3.org/2000/svg">
<path d="M15.5928 20.3333H2.40612C1.40821 20.3634 0.5333 19.6713 0.332785 18.6933C0.185047 17.7862 0.674578 16.8951 1.51945 16.5333C1.60371 16.5017 1.66127 16.4232 1.66612 16.3333L1.66612 10.3333C1.66612 6.28325 4.94936 3 8.99945 3C13.0495 3 16.3328 6.28325 16.3328 10.3333V16.3333C16.3402 16.4207 16.3973 16.496 16.4795 16.5267C17.3271 16.8891 17.8172 17.7839 17.6661 18.6933C17.4656 19.6713 16.5907 20.3634 15.5928 20.3333ZM8.99945 4.33333C5.68574 4.33333 2.99945 7.01962 2.99945 10.3333V16.3333C2.99489 16.951 2.62629 17.5078 2.05945 17.7533C1.77594 17.8753 1.61322 18.1759 1.66612 18.48C1.75956 18.806 2.06778 19.0225 2.40612 19H15.5928C15.9311 19.0225 16.2393 18.806 16.3328 18.48C16.3867 18.1776 16.227 17.8776 15.9461 17.7533C15.3732 17.5141 14.9999 16.9542 14.9995 16.3333L14.9995 10.3333C14.9995 7.01962 12.3132 4.33333 8.99945 4.33333Z" fill="#1F2846"/>
<path d="M9.08626 23.0003C7.24531 23.0003 5.75293 21.5079 5.75293 19.667L7.08626 19.667C7.08626 20.7716 7.98169 21.667 9.08626 21.667C10.1908 21.667 11.0863 20.7716 11.0863 19.667H12.4196C12.4196 21.5079 10.9272 23.0003 9.08626 23.0003Z" fill="#1F2846"/>
<circle cx="14" cy="5" r="4.5" fill="#FF5555" stroke="white"/>
</svg>
