<svg width="16" height="17" viewBox="0 0 16 17" fill="none" xmlns="http://www.w3.org/2000/svg">
<path d="M6.88497 14.6673L13.8346 10.6549C14.3697 10.3671 14.6202 9.73618 14.4283 9.15974C14.2302 8.6367 13.701 8.31605 13.1457 8.38244C13.0917 8.39141 13.0374 8.36755 13.0075 8.32166L11.1819 5.15953C9.94953 3.02503 7.22017 2.2937 5.08568 3.52605C2.9512 4.7584 2.21987 7.48776 3.45221 9.62225L5.27787 12.7844C5.30058 12.8327 5.29339 12.8898 5.2594 12.9309C4.92297 13.3798 4.93695 14.0006 5.29327 14.4339C5.69653 14.8883 6.3682 14.9868 6.88497 14.6673Z" fill="#2FC3A1"/>
<path d="M11.1251 14.0929C12.0953 13.5327 12.4277 12.2921 11.8676 11.3219L11.1649 11.7276C11.501 12.3097 11.3015 13.0541 10.7194 13.3902C10.1373 13.7263 9.39289 13.5268 9.05679 12.9447L8.3541 13.3504C8.91426 14.3206 10.1549 14.653 11.1251 14.0929Z" fill="#2FC3A1"/>
</svg>
