<svg width="20" height="16" viewBox="0 0 20 16" fill="none" xmlns="http://www.w3.org/2000/svg">
<path d="M13.073 11.938C13.1803 12.2571 13.275 12.882 13.1803 13.4706C13.8857 13.5442 14.6135 13.5515 15.2404 13.5515C16.7573 13.5515 19.4857 13.4909 19.9248 12.3504C20.05 12.0269 19.996 11.5113 19.9248 11.2995C19.6491 10.4775 18.5479 9.96262 17.7628 9.61817C17.4553 9.4835 16.6035 9.25483 16.5013 8.86727C16.3406 8.25527 16.9506 7.7886 17.2222 7.30637C17.5079 6.79792 17.7462 6.10992 17.7926 5.53502C17.9597 3.47056 16.6941 2.263 14.8799 2.47211C13.5608 2.62389 12.7732 3.60723 12.6877 4.87369C12.6012 6.16436 13.0801 7.11748 13.5888 7.81638C13.8115 8.12216 14.045 8.31927 14.0095 8.68727C13.9675 9.12305 13.5019 9.24416 13.1688 9.37772C12.7739 9.53639 12.349 9.7775 12.1477 9.88861C11.9752 9.98417 11.7983 10.0842 11.6274 10.1906C12.2563 10.6288 12.8246 11.198 13.073 11.938Z" fill="#F7F8F8"/>
<path d="M0.0873557 12.3195C-0.39887 14.1126 1.24225 14.6555 2.59671 14.9066C3.75938 15.1213 5.07006 15.138 6.14829 15.138C8.09853 15.138 11.6061 15.0598 12.1712 13.5937C12.3326 13.1777 12.2632 12.5148 12.1712 12.2424C11.8166 11.1853 10.4008 10.5239 9.39188 10.0804C8.99654 9.90749 7.90142 9.61326 7.77008 9.11548C7.56342 8.32814 8.34809 7.72792 8.69698 7.10791C9.06432 6.45435 9.37076 5.56945 9.43054 4.83011C9.62921 2.37476 8.25164 0.862082 6.19763 0.862305C6.03118 0.862305 5.86051 0.872083 5.68562 0.892305C3.98939 1.0872 2.97627 2.35165 2.86671 3.97989C2.7556 5.63923 3.37116 6.8648 4.02494 7.76347C4.31117 8.15659 4.61139 8.4097 4.56561 8.88326C4.51161 9.44349 3.91316 9.59904 3.48472 9.77082C2.97693 9.97527 2.43049 10.2848 2.17204 10.4277C1.28292 10.9193 0.306691 11.5104 0.0873557 12.3195Z" fill="#F7F8F8"/>
</svg>
