<svg width="20" height="21" viewBox="0 0 20 21" fill="none" xmlns="http://www.w3.org/2000/svg">
<path d="M10.0074 11.0724C7.79834 11.0724 6.00757 9.28158 6.00757 7.07255C6.00757 4.86353 7.79834 3.07275 10.0074 3.07275C12.2164 3.07275 14.0072 4.86353 14.0072 7.07255C14.0072 9.28158 12.2164 11.0724 10.0074 11.0724ZM10.0074 4.40602C8.53468 4.40602 7.34084 5.59987 7.34084 7.07255C7.34084 8.54524 8.53468 9.73909 10.0074 9.73909C11.4801 9.73909 12.6739 8.54524 12.6739 7.07255C12.6739 5.59987 11.4801 4.40602 10.0074 4.40602Z" fill="#1F2846"/>
<path d="M10.0075 20.4057C7.0141 20.4037 4.17903 19.0608 2.28122 16.7459L1.93457 16.3192L2.28122 15.8993C4.18061 13.5874 7.01545 12.2476 10.0075 12.2476C12.9996 12.2476 15.8344 13.5874 17.7338 15.8993L18.0804 16.3192L17.7338 16.7459C15.836 19.0608 13.0009 20.4037 10.0075 20.4057ZM3.68115 16.3259C5.32004 18.0804 7.61331 19.0764 10.0142 19.0764C12.415 19.0764 14.7083 18.0804 16.3472 16.3259C14.7083 14.5714 12.415 13.5755 10.0142 13.5755C7.61331 13.5755 5.32003 14.5714 3.68115 16.3259Z" fill="#1F2846"/>
<path d="M10.0074 20.4055C5.32883 20.4086 1.27352 17.1672 0.24558 12.603C-0.782366 8.03874 1.49188 3.37187 5.72009 1.36904C9.94829 -0.633799 15 0.562873 17.8804 4.24963C20.7609 7.93639 20.6999 13.1275 17.7337 16.7456C15.8359 19.0605 13.0008 20.4035 10.0074 20.4055ZM10.0074 1.73973C5.22118 1.73973 1.34117 5.61973 1.34117 10.406C1.34117 15.1922 5.22118 19.0722 10.0074 19.0722C14.7936 19.0722 18.6736 15.1922 18.6736 10.406C18.6736 5.61973 14.7936 1.73972 10.0074 1.73973Z" fill="#1F2846"/>
</svg>
