<svg width="20" height="20" viewBox="0 0 20 20" fill="none" xmlns="http://www.w3.org/2000/svg">
<path d="M0.449707 3.35209C0.449707 1.99347 1.55109 0.89209 2.90971 0.89209H6.61188C7.9705 0.89209 9.07188 1.99347 9.07188 3.35209V7.13104C9.07188 8.48966 7.9705 9.59104 6.61188 9.59104H2.90971C1.55109 9.59104 0.449707 8.48966 0.449707 7.13104V3.35209Z" fill="white"/>
<path d="M10.5088 3.35209C10.5088 1.99347 11.6102 0.89209 12.9688 0.89209H16.671C18.0296 0.89209 19.131 1.99347 19.131 3.35209V7.13104C19.131 8.48966 18.0296 9.59104 16.671 9.59104H12.9688C11.6102 9.59104 10.5088 8.48966 10.5088 7.13104V3.35209Z" fill="white"/>
<path d="M0.449707 13.501C0.449707 12.1424 1.55109 11.041 2.90971 11.041H6.61188C7.9705 11.041 9.07188 12.1424 9.07188 13.501V17.28C9.07188 18.6386 7.9705 19.74 6.61188 19.74H2.90971C1.55109 19.74 0.449707 18.6386 0.449707 17.28V13.501Z" fill="white"/>
<ellipse opacity="0.4" cx="14.8199" cy="15.3905" rx="4.31109" ry="4.34947" fill="white"/>
</svg>
