<svg width="14" height="14" viewBox="0 0 14 14" fill="none" xmlns="http://www.w3.org/2000/svg">
<path d="M10.2004 8.98592C9.79874 8.58934 9.29726 8.58934 8.89812 8.98592C8.59366 9.28783 8.28919 9.58974 7.98984 9.89676C7.90796 9.9812 7.83888 9.99911 7.7391 9.94282C7.54209 9.83536 7.33229 9.74837 7.14295 9.63067C6.26025 9.07547 5.52083 8.36163 4.86584 7.55824C4.5409 7.15911 4.25178 6.73183 4.04966 6.25082C4.00872 6.15359 4.0164 6.08963 4.09571 6.01031C4.40018 5.71608 4.69697 5.41417 4.99632 5.11226C5.41337 4.69266 5.41337 4.20141 4.99376 3.77925C4.75582 3.53875 4.51787 3.30336 4.27993 3.06286C4.03431 2.81723 3.79124 2.56905 3.54306 2.32599C3.14137 1.93453 2.63989 1.93453 2.24076 2.32855C1.93373 2.63046 1.6395 2.94004 1.32735 3.23684C1.03823 3.5106 0.892396 3.84577 0.861694 4.23723C0.813081 4.87431 0.969153 5.47557 1.18919 6.06148C1.6395 7.27424 2.32519 8.35139 3.15672 9.339C4.27993 10.6746 5.62061 11.7312 7.18901 12.4937C7.89517 12.8365 8.62692 13.1001 9.42263 13.1436C9.97016 13.1743 10.4461 13.0361 10.8273 12.6088C11.0883 12.3172 11.3825 12.0511 11.6588 11.7722C12.0682 11.3577 12.0707 10.8562 11.6639 10.4469C11.1778 9.95817 10.6891 9.47204 10.2004 8.98592Z" fill="white"/>
<path d="M9.71171 6.94686L10.6558 6.78567C10.5074 5.91832 10.0981 5.13285 9.47632 4.50856C8.81877 3.85101 7.98724 3.43652 7.07128 3.30859L6.93823 4.25782C7.64695 4.3576 8.29171 4.67742 8.80086 5.18658C9.28187 5.66758 9.59657 6.27652 9.71171 6.94686Z" fill="white"/>
<path d="M11.1881 2.84285C10.0982 1.75291 8.71911 1.06466 7.19677 0.852295L7.06372 1.80152C8.37882 1.98574 9.57111 2.58188 10.5127 3.52087C11.4056 4.41381 11.9915 5.54213 12.2039 6.78303L13.148 6.62184C12.8998 5.18393 12.2218 3.87907 11.1881 2.84285Z" fill="white"/>
</svg>
