<svg width="12" height="12" viewBox="0 0 12 12" fill="none" xmlns="http://www.w3.org/2000/svg">
<path d="M10.7429 10.3425C10.5749 10.1746 10.555 9.9026 10.7029 9.71062C11.5388 8.65475 12.0308 7.31492 11.9988 5.85909C11.9268 2.74348 9.38709 0.147794 6.27947 0.00781077C2.8359 -0.14817 0.000244141 2.59149 0.000244141 5.99908C0.000244141 8.97471 2.16798 11.4384 5.00763 11.9104C5.13961 11.9343 5.2796 11.9543 5.42758 11.9703C5.63555 11.9903 5.82353 11.9983 5.99951 11.9983H11.548C11.8619 11.9983 12.0192 11.6188 11.7972 11.3968L10.7429 10.3425ZM2.79994 6.79898C2.35999 6.79898 2.00004 6.43902 2.00004 5.99908C2.00004 5.55913 2.35999 5.19917 2.79994 5.19917C3.23989 5.19917 3.59984 5.55913 3.59984 5.99908C3.59984 6.43902 3.23985 6.79898 2.79994 6.79898ZM5.99955 6.79898C5.5596 6.79898 5.19965 6.43902 5.19965 5.99908C5.19965 5.55913 5.5596 5.19917 5.99955 5.19917C6.4395 5.19917 6.79945 5.55913 6.79945 5.99908C6.79945 6.43902 6.43946 6.79898 5.99955 6.79898ZM9.19916 6.79898C8.75921 6.79898 8.39925 6.43902 8.39925 5.99908C8.39925 5.55913 8.75921 5.19917 9.19916 5.19917C9.6391 5.19917 9.99906 5.55913 9.99906 5.99908C9.99906 6.43902 9.63906 6.79898 9.19916 6.79898Z" fill="white"/>
</svg>
